<svg xmlns="http://www.w3.org/2000/svg" viewBox="0 0 420 320" width="420" height="320" fill="none">
  <defs>
    <style>
      .gold { fill: #D4AF37; stroke: #B8860B; stroke-width: 3; }
      .text { font-family: Georgia, 'Times New Roman', serif; font-weight: 600; fill: #D4AF37; }
    </style>
  </defs>

  <!-- Arched brand name (approximated with positioned text for compatibility) -->
  <text x="210" y="38" text-anchor="middle" font-size="28" class="text" letter-spacing="4">THE KRONNOISSEUR</text>

  <!-- Crown (simplified) -->
  <g stroke="#D4AF37" stroke-width="5" stroke-linejoin="round" stroke-linecap="round">
    <path d="M148 52 L162 32 L185 42 L210 26 L235 42 L258 32 L272 52"/>
    <path d="M158 52 Q210 64 262 52" fill="none"/>
  </g>

  <!-- Shield + Leaf (reusing mark structure, scaled) -->
  <g transform="translate(110 58) scale(1.0)">
    <!-- Shield -->
    <path d="M40 52 L160 52 Q175 85 160 140 Q100 185 40 140 Q25 85 40 52" class="gold"/>
    <!-- Inner -->
    <path d="M52 60 L148 60 Q160 88 148 130 Q100 168 52 130 Q40 88 52 60" fill="none" stroke="#F5E6A3" stroke-width="2" opacity="0.55"/>
    <!-- Leaf -->
    <g fill="#0A2F1F" stroke="#B8860B" stroke-width="1.8">
      <path d="M100 68 L100 138 Q96 148 100 155"/>
      <path d="M100 78 Q78 92 68 115"/>
      <path d="M100 78 Q122 92 132 115"/>
      <path d="M100 92 Q72 108 62 132"/>
      <path d="M100 92 Q128 108 138 132"/>
      <path d="M100 108 Q68 125 58 145"/>
      <path d="M100 108 Q132 125 142 145"/>
    </g>
    <g stroke="#F5E6A3" stroke-width="1.3" opacity="0.65">
      <path d="M100 72 L100 150"/>
      <path d="M100 85 L72 105"/>
      <path d="M100 85 L128 105"/>
    </g>
    <circle cx="100" cy="158" r="4" fill="#B8860B"/>
  </g>

  <!-- Laurel branches (simplified crossed) -->
  <g stroke="#D4AF37" stroke-width="4" stroke-linecap="round" fill="none" opacity="0.9">
    <!-- Left laurel -->
    <path d="M92 170 Q60 195 48 230"/>
    <path d="M98 175 Q70 200 62 235"/>
    <path d="M104 172 Q78 198 72 228"/>
    <!-- Right laurel -->
    <path d="M308 170 Q340 195 352 230"/>
    <path d="M302 175 Q330 200 338 235"/>
    <path d="M296 172 Q322 198 328 228"/>
  </g>

  <!-- 421 -->
  <text x="210" y="290" text-anchor="middle" font-size="42" class="text" letter-spacing="6">421</text>
</svg>